<mxfile host="Electron" agent="Mozilla/5.0 (Windows NT 10.0; Win64; x64) AppleWebKit/537.36 (KHTML, like Gecko) draw.io/26.2.2 Chrome/134.0.6998.178 Electron/35.1.2 Safari/537.36" version="26.2.2">
  <diagram name="Seite-1" id="MNXvzrmy9CHQ8GovuJ1v">
    <mxGraphModel dx="2550" dy="2198" grid="1" gridSize="10" guides="1" tooltips="1" connect="1" arrows="1" fold="1" page="1" pageScale="1" pageWidth="827" pageHeight="1169" math="0" shadow="0">
      <root>
        <mxCell id="0" />
        <mxCell id="1" parent="0" />
        <mxCell id="xQ-6RaD-XH55vwceCIZa-15" style="edgeStyle=orthogonalEdgeStyle;shape=connector;rounded=0;orthogonalLoop=1;jettySize=auto;html=1;exitX=1;exitY=0;exitDx=0;exitDy=0;entryX=0.5;entryY=1;entryDx=0;entryDy=0;strokeColor=#0B4D6A;align=center;verticalAlign=middle;fontFamily=Helvetica;fontSize=11;fontColor=default;labelBackgroundColor=none;startFill=0;endArrow=none;" edge="1" parent="1" source="vquQ1AeAsl4T5Lc66v6B-1" target="xQ-6RaD-XH55vwceCIZa-12">
          <mxGeometry relative="1" as="geometry" />
        </mxCell>
        <mxCell id="vquQ1AeAsl4T5Lc66v6B-1" value="Airport" style="rounded=1;arcSize=10;whiteSpace=wrap;html=1;align=center;labelBackgroundColor=none;fillColor=#09555B;strokeColor=#BAC8D3;fontColor=#EEEEEE;" parent="1" vertex="1">
          <mxGeometry x="140" y="-30" width="100" height="40" as="geometry" />
        </mxCell>
        <mxCell id="xQ-6RaD-XH55vwceCIZa-31" style="edgeStyle=orthogonalEdgeStyle;shape=connector;rounded=0;orthogonalLoop=1;jettySize=auto;html=1;entryX=0;entryY=0.5;entryDx=0;entryDy=0;strokeColor=#0B4D6A;align=center;verticalAlign=middle;fontFamily=Helvetica;fontSize=11;fontColor=default;labelBackgroundColor=none;startFill=0;endArrow=none;" edge="1" parent="1" source="xQ-6RaD-XH55vwceCIZa-33" target="xQ-6RaD-XH55vwceCIZa-1">
          <mxGeometry relative="1" as="geometry" />
        </mxCell>
        <mxCell id="xQ-6RaD-XH55vwceCIZa-34" style="edgeStyle=orthogonalEdgeStyle;shape=connector;rounded=0;orthogonalLoop=1;jettySize=auto;html=1;exitX=1;exitY=0.5;exitDx=0;exitDy=0;entryX=0;entryY=0.5;entryDx=0;entryDy=0;strokeColor=#0B4D6A;align=center;verticalAlign=middle;fontFamily=Helvetica;fontSize=11;fontColor=default;labelBackgroundColor=none;startFill=0;endArrow=none;" edge="1" parent="1" source="xQ-6RaD-XH55vwceCIZa-36" target="xQ-6RaD-XH55vwceCIZa-2">
          <mxGeometry relative="1" as="geometry" />
        </mxCell>
        <mxCell id="xQ-6RaD-XH55vwceCIZa-37" style="edgeStyle=orthogonalEdgeStyle;shape=connector;rounded=0;orthogonalLoop=1;jettySize=auto;html=1;entryX=0;entryY=0.5;entryDx=0;entryDy=0;strokeColor=#0B4D6A;align=center;verticalAlign=middle;fontFamily=Helvetica;fontSize=11;fontColor=default;labelBackgroundColor=none;startFill=0;endArrow=none;" edge="1" parent="1" source="xQ-6RaD-XH55vwceCIZa-39" target="xQ-6RaD-XH55vwceCIZa-4">
          <mxGeometry relative="1" as="geometry" />
        </mxCell>
        <mxCell id="vquQ1AeAsl4T5Lc66v6B-2" value="Flight" style="rounded=1;arcSize=10;whiteSpace=wrap;html=1;align=center;labelBackgroundColor=none;fillColor=#09555B;strokeColor=#BAC8D3;fontColor=#EEEEEE;shape=label;" parent="1" vertex="1">
          <mxGeometry x="150" y="-250" width="100" height="40" as="geometry" />
        </mxCell>
        <mxCell id="xQ-6RaD-XH55vwceCIZa-40" style="edgeStyle=orthogonalEdgeStyle;shape=connector;rounded=0;orthogonalLoop=1;jettySize=auto;html=1;entryX=0.5;entryY=0;entryDx=0;entryDy=0;strokeColor=#0B4D6A;align=center;verticalAlign=middle;fontFamily=Helvetica;fontSize=11;fontColor=default;labelBackgroundColor=none;startFill=0;endArrow=none;" edge="1" parent="1" source="xQ-6RaD-XH55vwceCIZa-41" target="xQ-6RaD-XH55vwceCIZa-4">
          <mxGeometry relative="1" as="geometry" />
        </mxCell>
        <mxCell id="xQ-6RaD-XH55vwceCIZa-1" value="Pilot" style="rounded=1;arcSize=10;whiteSpace=wrap;html=1;align=center;labelBackgroundColor=none;fillColor=#09555B;strokeColor=#BAC8D3;fontColor=#EEEEEE;" vertex="1" parent="1">
          <mxGeometry x="390" y="-520" width="100" height="40" as="geometry" />
        </mxCell>
        <mxCell id="xQ-6RaD-XH55vwceCIZa-2" value="Aircraft" style="rounded=1;arcSize=10;whiteSpace=wrap;html=1;align=center;labelBackgroundColor=none;fillColor=#09555B;strokeColor=#BAC8D3;fontColor=#EEEEEE;" vertex="1" parent="1">
          <mxGeometry x="830" y="32" width="100" height="40" as="geometry" />
        </mxCell>
        <mxCell id="xQ-6RaD-XH55vwceCIZa-3" value="AircraftType" style="rounded=1;arcSize=10;whiteSpace=wrap;html=1;align=center;labelBackgroundColor=none;fillColor=#09555B;strokeColor=#BAC8D3;fontColor=#EEEEEE;" vertex="1" parent="1">
          <mxGeometry x="1140" y="32" width="100" height="40" as="geometry" />
        </mxCell>
        <mxCell id="xQ-6RaD-XH55vwceCIZa-44" style="edgeStyle=orthogonalEdgeStyle;shape=connector;rounded=0;orthogonalLoop=1;jettySize=auto;html=1;exitX=0.5;exitY=1;exitDx=0;exitDy=0;entryX=0.5;entryY=0;entryDx=0;entryDy=0;strokeColor=#0B4D6A;align=center;verticalAlign=middle;fontFamily=Helvetica;fontSize=11;fontColor=default;labelBackgroundColor=none;startFill=0;endArrow=none;" edge="1" parent="1" source="xQ-6RaD-XH55vwceCIZa-46" target="xQ-6RaD-XH55vwceCIZa-2">
          <mxGeometry relative="1" as="geometry" />
        </mxCell>
        <mxCell id="xQ-6RaD-XH55vwceCIZa-4" value="Flightmission" style="rounded=1;arcSize=10;whiteSpace=wrap;html=1;align=center;labelBackgroundColor=none;fillColor=#09555B;strokeColor=#BAC8D3;fontColor=#EEEEEE;" vertex="1" parent="1">
          <mxGeometry x="650" y="-310" width="100" height="40" as="geometry" />
        </mxCell>
        <mxCell id="xQ-6RaD-XH55vwceCIZa-9" style="edgeStyle=orthogonalEdgeStyle;rounded=0;orthogonalLoop=1;jettySize=auto;html=1;entryX=0;entryY=0.5;entryDx=0;entryDy=0;strokeColor=#0B4D6A;endArrow=none;startFill=0;labelBackgroundColor=none;fontColor=default;" edge="1" parent="1" source="xQ-6RaD-XH55vwceCIZa-8" target="vquQ1AeAsl4T5Lc66v6B-1">
          <mxGeometry relative="1" as="geometry" />
        </mxCell>
        <mxCell id="xQ-6RaD-XH55vwceCIZa-8" value="city" style="ellipse;whiteSpace=wrap;html=1;align=center;strokeColor=#BAC8D3;fontColor=#EEEEEE;fillColor=#09555B;labelBackgroundColor=none;" vertex="1" parent="1">
          <mxGeometry x="-70" y="-30" width="100" height="40" as="geometry" />
        </mxCell>
        <mxCell id="xQ-6RaD-XH55vwceCIZa-20" style="edgeStyle=orthogonalEdgeStyle;shape=connector;rounded=0;orthogonalLoop=1;jettySize=auto;html=1;entryX=0.75;entryY=1;entryDx=0;entryDy=0;strokeColor=#0B4D6A;align=center;verticalAlign=middle;fontFamily=Helvetica;fontSize=11;fontColor=default;labelBackgroundColor=none;startFill=0;endArrow=none;" edge="1" parent="1" source="xQ-6RaD-XH55vwceCIZa-12" target="vquQ1AeAsl4T5Lc66v6B-2">
          <mxGeometry relative="1" as="geometry" />
        </mxCell>
        <mxCell id="xQ-6RaD-XH55vwceCIZa-12" value="from" style="shape=rhombus;perimeter=rhombusPerimeter;whiteSpace=wrap;html=1;align=center;strokeColor=#BAC8D3;fontFamily=Helvetica;fontSize=11;fontColor=#EEEEEE;labelBackgroundColor=none;fillColor=#09555B;" vertex="1" parent="1">
          <mxGeometry x="210" y="-110" width="120" height="60" as="geometry" />
        </mxCell>
        <mxCell id="xQ-6RaD-XH55vwceCIZa-21" style="edgeStyle=orthogonalEdgeStyle;shape=connector;rounded=0;orthogonalLoop=1;jettySize=auto;html=1;entryX=0.25;entryY=1;entryDx=0;entryDy=0;strokeColor=#0B4D6A;align=center;verticalAlign=middle;fontFamily=Helvetica;fontSize=11;fontColor=default;labelBackgroundColor=none;startFill=0;endArrow=none;" edge="1" parent="1" source="xQ-6RaD-XH55vwceCIZa-13" target="vquQ1AeAsl4T5Lc66v6B-2">
          <mxGeometry relative="1" as="geometry" />
        </mxCell>
        <mxCell id="xQ-6RaD-XH55vwceCIZa-13" value="to" style="shape=rhombus;perimeter=rhombusPerimeter;whiteSpace=wrap;html=1;align=center;strokeColor=#BAC8D3;fontFamily=Helvetica;fontSize=11;fontColor=#EEEEEE;labelBackgroundColor=none;fillColor=#09555B;" vertex="1" parent="1">
          <mxGeometry x="70" y="-110" width="120" height="60" as="geometry" />
        </mxCell>
        <mxCell id="xQ-6RaD-XH55vwceCIZa-14" value="&lt;h1 style=&quot;margin-top: 0px;&quot;&gt;&lt;font style=&quot;color: rgb(0, 0, 0);&quot;&gt;Entities&lt;/font&gt;&lt;/h1&gt;&lt;h1 style=&quot;margin-top: 0px;&quot;&gt;&lt;font style=&quot;color: rgb(0, 0, 0);&quot;&gt;&lt;span style=&quot;background-color: light-dark(#ffffff, var(--ge-dark-color, #121212)); font-size: 11px; font-weight: 400;&quot;&gt;Airport(&lt;/span&gt;&lt;u style=&quot;background-color: light-dark(#ffffff, var(--ge-dark-color, #121212)); font-size: 11px; font-weight: 400;&quot;&gt;key&lt;/u&gt;&lt;span style=&quot;background-color: light-dark(#ffffff, var(--ge-dark-color, #121212)); font-size: 11px; font-weight: 400;&quot;&gt;, city,&lt;/span&gt;&lt;/font&gt;&lt;/h1&gt;&lt;div&gt;&lt;span style=&quot;background-color: light-dark(#ffffff, var(--ge-dark-color, #121212)); font-size: 11px; font-weight: 400;&quot;&gt;&lt;font style=&quot;color: rgb(0, 0, 0);&quot;&gt;Flight(flightnumber&lt;/font&gt;&lt;/span&gt;&lt;/div&gt;&lt;h1 style=&quot;margin-top: 0px;&quot;&gt;&lt;font style=&quot;color: rgb(0, 0, 0);&quot;&gt;&lt;br&gt;&lt;/font&gt;&lt;/h1&gt;&lt;h1 style=&quot;margin-top: 0px;&quot;&gt;&lt;font style=&quot;color: rgb(0, 0, 0);&quot;&gt;&lt;br&gt;&lt;/font&gt;&lt;/h1&gt;&lt;h1 style=&quot;margin-top: 0px;&quot;&gt;&lt;font style=&quot;color: rgb(0, 0, 0);&quot;&gt;&amp;nbsp;Relations&lt;/font&gt;&lt;/h1&gt;&lt;p&gt;&lt;font style=&quot;color: rgb(0, 0, 0);&quot;&gt;from(key, flightnumber&lt;/font&gt;&lt;/p&gt;" style="text;html=1;whiteSpace=wrap;overflow=hidden;rounded=0;fontFamily=Helvetica;fontSize=11;fontColor=#EEEEEE;labelBackgroundColor=none;" vertex="1" parent="1">
          <mxGeometry x="-160" y="-470" width="240" height="350" as="geometry" />
        </mxCell>
        <mxCell id="xQ-6RaD-XH55vwceCIZa-17" style="edgeStyle=orthogonalEdgeStyle;shape=connector;rounded=0;orthogonalLoop=1;jettySize=auto;html=1;entryX=0;entryY=0.5;entryDx=0;entryDy=0;strokeColor=#0B4D6A;align=center;verticalAlign=middle;fontFamily=Helvetica;fontSize=11;fontColor=default;labelBackgroundColor=none;startFill=0;endArrow=none;" edge="1" parent="1" source="xQ-6RaD-XH55vwceCIZa-16" target="vquQ1AeAsl4T5Lc66v6B-1">
          <mxGeometry relative="1" as="geometry" />
        </mxCell>
        <mxCell id="xQ-6RaD-XH55vwceCIZa-16" value="&lt;u&gt;key&lt;/u&gt;" style="ellipse;whiteSpace=wrap;html=1;align=center;strokeColor=#BAC8D3;fontColor=#EEEEEE;fillColor=#09555B;labelBackgroundColor=none;" vertex="1" parent="1">
          <mxGeometry x="-70" y="10" width="100" height="40" as="geometry" />
        </mxCell>
        <mxCell id="xQ-6RaD-XH55vwceCIZa-19" style="edgeStyle=orthogonalEdgeStyle;shape=connector;rounded=0;orthogonalLoop=1;jettySize=auto;html=1;entryX=0.5;entryY=0;entryDx=0;entryDy=0;strokeColor=#0B4D6A;align=center;verticalAlign=middle;fontFamily=Helvetica;fontSize=11;fontColor=default;labelBackgroundColor=none;startFill=0;endArrow=none;" edge="1" parent="1" source="xQ-6RaD-XH55vwceCIZa-18" target="vquQ1AeAsl4T5Lc66v6B-2">
          <mxGeometry relative="1" as="geometry" />
        </mxCell>
        <mxCell id="xQ-6RaD-XH55vwceCIZa-18" value="&lt;span style=&quot;border-bottom: 1px dotted&quot;&gt;&lt;u&gt;flightnumber&lt;/u&gt;&lt;/span&gt;" style="ellipse;whiteSpace=wrap;html=1;align=center;strokeColor=#BAC8D3;fontFamily=Helvetica;fontSize=11;fontColor=#EEEEEE;labelBackgroundColor=none;fillColor=#09555B;" vertex="1" parent="1">
          <mxGeometry x="120" y="-320" width="100" height="40" as="geometry" />
        </mxCell>
        <mxCell id="xQ-6RaD-XH55vwceCIZa-22" style="edgeStyle=orthogonalEdgeStyle;shape=connector;rounded=0;orthogonalLoop=1;jettySize=auto;html=1;entryX=0.09;entryY=0.025;entryDx=0;entryDy=0;entryPerimeter=0;strokeColor=#0B4D6A;align=center;verticalAlign=middle;fontFamily=Helvetica;fontSize=11;fontColor=default;labelBackgroundColor=none;startFill=0;endArrow=none;" edge="1" parent="1" source="xQ-6RaD-XH55vwceCIZa-13" target="vquQ1AeAsl4T5Lc66v6B-1">
          <mxGeometry relative="1" as="geometry" />
        </mxCell>
        <mxCell id="xQ-6RaD-XH55vwceCIZa-24" value="N" style="text;html=1;align=center;verticalAlign=middle;resizable=0;points=[];autosize=1;strokeColor=none;fillColor=none;fontFamily=Helvetica;fontSize=11;fontColor=#EEEEEE;labelBackgroundColor=none;" vertex="1" parent="1">
          <mxGeometry x="225" y="-212" width="30" height="30" as="geometry" />
        </mxCell>
        <mxCell id="xQ-6RaD-XH55vwceCIZa-25" value="1" style="text;html=1;align=center;verticalAlign=middle;resizable=0;points=[];autosize=1;strokeColor=none;fillColor=none;fontFamily=Helvetica;fontSize=11;fontColor=#EEEEEE;labelBackgroundColor=none;" vertex="1" parent="1">
          <mxGeometry x="225" y="-62" width="30" height="30" as="geometry" />
        </mxCell>
        <mxCell id="xQ-6RaD-XH55vwceCIZa-29" style="edgeStyle=orthogonalEdgeStyle;shape=connector;rounded=0;orthogonalLoop=1;jettySize=auto;html=1;entryX=0;entryY=0.5;entryDx=0;entryDy=0;strokeColor=#0B4D6A;align=center;verticalAlign=middle;fontFamily=Helvetica;fontSize=11;fontColor=default;labelBackgroundColor=none;startFill=0;endArrow=none;" edge="1" parent="1" source="xQ-6RaD-XH55vwceCIZa-27" target="xQ-6RaD-XH55vwceCIZa-3">
          <mxGeometry relative="1" as="geometry" />
        </mxCell>
        <mxCell id="xQ-6RaD-XH55vwceCIZa-27" value="belongs" style="shape=rhombus;perimeter=rhombusPerimeter;whiteSpace=wrap;html=1;align=center;strokeColor=#BAC8D3;fontFamily=Helvetica;fontSize=11;fontColor=#EEEEEE;labelBackgroundColor=none;fillColor=#09555B;" vertex="1" parent="1">
          <mxGeometry x="960" y="22" width="120" height="60" as="geometry" />
        </mxCell>
        <mxCell id="xQ-6RaD-XH55vwceCIZa-28" style="edgeStyle=orthogonalEdgeStyle;shape=connector;rounded=0;orthogonalLoop=1;jettySize=auto;html=1;exitX=1;exitY=0.5;exitDx=0;exitDy=0;entryX=0.067;entryY=0.5;entryDx=0;entryDy=0;entryPerimeter=0;strokeColor=#0B4D6A;align=center;verticalAlign=middle;fontFamily=Helvetica;fontSize=11;fontColor=default;labelBackgroundColor=none;startFill=0;endArrow=none;" edge="1" parent="1" source="xQ-6RaD-XH55vwceCIZa-2" target="xQ-6RaD-XH55vwceCIZa-27">
          <mxGeometry relative="1" as="geometry" />
        </mxCell>
        <mxCell id="xQ-6RaD-XH55vwceCIZa-33" value="assignedto" style="shape=rhombus;perimeter=rhombusPerimeter;whiteSpace=wrap;html=1;align=center;strokeColor=#BAC8D3;fontFamily=Helvetica;fontSize=11;fontColor=#EEEEEE;labelBackgroundColor=none;fillColor=#09555B;" vertex="1" parent="1">
          <mxGeometry x="220" y="-470" width="120" height="60" as="geometry" />
        </mxCell>
        <mxCell id="xQ-6RaD-XH55vwceCIZa-35" value="" style="edgeStyle=orthogonalEdgeStyle;shape=connector;rounded=0;orthogonalLoop=1;jettySize=auto;html=1;exitX=1;exitY=0.75;exitDx=0;exitDy=0;entryX=0;entryY=0.5;entryDx=0;entryDy=0;strokeColor=#0B4D6A;align=center;verticalAlign=middle;fontFamily=Helvetica;fontSize=11;fontColor=default;labelBackgroundColor=none;startFill=0;endArrow=none;" edge="1" parent="1" source="vquQ1AeAsl4T5Lc66v6B-2" target="xQ-6RaD-XH55vwceCIZa-36">
          <mxGeometry relative="1" as="geometry">
            <mxPoint x="250" y="-220" as="sourcePoint" />
            <mxPoint x="610" y="-130" as="targetPoint" />
          </mxGeometry>
        </mxCell>
        <mxCell id="xQ-6RaD-XH55vwceCIZa-36" value="designated" style="shape=rhombus;perimeter=rhombusPerimeter;whiteSpace=wrap;html=1;align=center;strokeColor=#BAC8D3;fontFamily=Helvetica;fontSize=11;fontColor=#EEEEEE;labelBackgroundColor=none;fillColor=#09555B;" vertex="1" parent="1">
          <mxGeometry x="440" y="60" width="120" height="60" as="geometry" />
        </mxCell>
        <mxCell id="xQ-6RaD-XH55vwceCIZa-38" value="" style="edgeStyle=orthogonalEdgeStyle;shape=connector;rounded=0;orthogonalLoop=1;jettySize=auto;html=1;entryX=0;entryY=0.5;entryDx=0;entryDy=0;strokeColor=#0B4D6A;align=center;verticalAlign=middle;fontFamily=Helvetica;fontSize=11;fontColor=default;labelBackgroundColor=none;startFill=0;endArrow=none;exitX=1;exitY=0.5;exitDx=0;exitDy=0;" edge="1" parent="1" source="vquQ1AeAsl4T5Lc66v6B-2" target="xQ-6RaD-XH55vwceCIZa-39">
          <mxGeometry relative="1" as="geometry">
            <mxPoint x="300" y="-300" as="sourcePoint" />
            <mxPoint x="500" y="-360" as="targetPoint" />
          </mxGeometry>
        </mxCell>
        <mxCell id="xQ-6RaD-XH55vwceCIZa-39" value="executed" style="shape=rhombus;perimeter=rhombusPerimeter;whiteSpace=wrap;html=1;align=center;strokeColor=#BAC8D3;fontFamily=Helvetica;fontSize=11;fontColor=#EEEEEE;labelBackgroundColor=none;fillColor=#09555B;" vertex="1" parent="1">
          <mxGeometry x="340" y="-360" width="120" height="60" as="geometry" />
        </mxCell>
        <mxCell id="xQ-6RaD-XH55vwceCIZa-42" value="" style="edgeStyle=orthogonalEdgeStyle;shape=connector;rounded=0;orthogonalLoop=1;jettySize=auto;html=1;entryX=0.5;entryY=0;entryDx=0;entryDy=0;strokeColor=#0B4D6A;align=center;verticalAlign=middle;fontFamily=Helvetica;fontSize=11;fontColor=default;labelBackgroundColor=none;startFill=0;endArrow=none;" edge="1" parent="1" source="xQ-6RaD-XH55vwceCIZa-1" target="xQ-6RaD-XH55vwceCIZa-41">
          <mxGeometry relative="1" as="geometry">
            <mxPoint x="415" y="-490" as="sourcePoint" />
            <mxPoint x="550" y="-380" as="targetPoint" />
          </mxGeometry>
        </mxCell>
        <mxCell id="xQ-6RaD-XH55vwceCIZa-41" value="flownby" style="shape=rhombus;perimeter=rhombusPerimeter;whiteSpace=wrap;html=1;align=center;strokeColor=#BAC8D3;fontFamily=Helvetica;fontSize=11;fontColor=#EEEEEE;labelBackgroundColor=none;fillColor=#09555B;" vertex="1" parent="1">
          <mxGeometry x="580" y="-470" width="120" height="60" as="geometry" />
        </mxCell>
        <mxCell id="xQ-6RaD-XH55vwceCIZa-45" value="" style="edgeStyle=orthogonalEdgeStyle;shape=connector;rounded=0;orthogonalLoop=1;jettySize=auto;html=1;exitX=1;exitY=1;exitDx=0;exitDy=0;entryX=0;entryY=0.5;entryDx=0;entryDy=0;strokeColor=#0B4D6A;align=center;verticalAlign=middle;fontFamily=Helvetica;fontSize=11;fontColor=default;labelBackgroundColor=none;startFill=0;endArrow=none;" edge="1" parent="1" source="xQ-6RaD-XH55vwceCIZa-4" target="xQ-6RaD-XH55vwceCIZa-46">
          <mxGeometry relative="1" as="geometry">
            <mxPoint x="550" y="-270" as="sourcePoint" />
            <mxPoint x="660" y="-150" as="targetPoint" />
          </mxGeometry>
        </mxCell>
        <mxCell id="xQ-6RaD-XH55vwceCIZa-46" value="used" style="shape=rhombus;perimeter=rhombusPerimeter;whiteSpace=wrap;html=1;align=center;strokeColor=#BAC8D3;fontFamily=Helvetica;fontSize=11;fontColor=#EEEEEE;labelBackgroundColor=none;fillColor=#09555B;" vertex="1" parent="1">
          <mxGeometry x="820" y="-60" width="120" height="60" as="geometry" />
        </mxCell>
        <mxCell id="xQ-6RaD-XH55vwceCIZa-48" style="edgeStyle=orthogonalEdgeStyle;shape=connector;rounded=0;orthogonalLoop=1;jettySize=auto;html=1;entryX=0.858;entryY=0.071;entryDx=0;entryDy=0;entryPerimeter=0;strokeColor=#0B4D6A;align=center;verticalAlign=middle;fontFamily=Helvetica;fontSize=11;fontColor=default;labelBackgroundColor=none;startFill=0;endArrow=none;" edge="1" parent="1" source="xQ-6RaD-XH55vwceCIZa-33" target="vquQ1AeAsl4T5Lc66v6B-2">
          <mxGeometry relative="1" as="geometry" />
        </mxCell>
      </root>
    </mxGraphModel>
  </diagram>
</mxfile>
